{"title":"The Divergent Series Insurgent(2015)MPEG-4[DaScubaDude]","uid":13534066,"size":1185300174,"categoryP":"video","categoryS":"movies","magnet":"?xt=urn:btih:ad64c32a02c0e08f1b95562af6b06b19e1c5a4d2&amp;dn=The+Divergent+Series+Insurgent%282015%29MPEG-4%5BDaScubaDude%5D&amp;tr=udp%3A%2F%2Ftracker.leechers-paradise.org%3A6969&amp;tr=udp%3A%2F%2Fzer0day.ch%3A1337&amp;tr=udp%3A%2F%2Fopen.demonii.com%3A1337&amp;tr=udp%3A%2F%2Ftracker.coppersurfer.tk%3A6969&amp;tr=udp%3A%2F%2Fexodus.desync.com%3A6969","seeders":0,"leechers":0,"uploader":"dascuba","files":1,"time":1455431661,"description":"Insurgent (2015)\r\nPG-13 | 1h 59min | Adventure, Sci-Fi, Thriller | 20 March 2015 (USA)\r\nBeatrice Prior must confront her inner demons and continue her fight against a powerful alliance which threatens to tear her society apart with the help from others on her side.\r\nDirector: Robert Schwentke\r\nWriters: Brian Duffield (screenplay), Akiva Goldsman (screenplay) | 2 more credits »\r\nStars: Shailene Woodley, Ansel Elgort, Theo James\r\n\r\nGeneral\r\nComplete name                            :InsurgentINSURGENT_Title1.mp4\r\nFormat                                   : MPEG-4\r\nFormat profile                           : Base Media\r\nCodec ID                                 : isom\r\nFile size                                : 1.10 GiB\r\nDuration                                 : 1h 58mn\r\nOverall bit rate                         : 1 329 Kbps\r\nMovie name                               : INSURGENT\r\nWriting application                      : Lavf54.6.100\r\n\r\nVideo\r\nID                                       : 1\r\nFormat                                   : AVC\r\nFormat/Info                              : Advanced Video Codec\r\nFormat profile                           :   \r\nFormat settings, CABAC                   : No\r\nFormat settings, ReFrames                : 6 frames\r\nCodec ID                                 : avc1\r\nCodec ID/Info                            : Advanced Video Coding\r\nDuration                                 : 1h 58mn\r\nBit rate                                 : 1 195 Kbps\r\nWidth                                    : 720 pixels\r\nHeight                                   : 404 pixels\r\nDisplay aspect ratio                     : 16:9\r\nFrame rate mode                          : Constant\r\nFrame rate                               : 29.970 fps\r\nColor space                              : YUV\r\nChroma subsampling                       : 4:2:0\r\nBit depth                                : 8 bits\r\nScan type                                : Progressive\r\nBits/(Pixel*Frame)                       : 0.137\r\nStream size                              : 1 016 MiB (90%)\r\n\r\nAudio\r\nID                                       : 2\r\nFormat                                   : AAC\r\nFormat/Info                              : Advanced Audio Codec\r\nFormat profile                           : LC\r\nCodec ID                                 : 40\r\nDuration                                 : 1h 58mn\r\nBit rate mode                            : Constant\r\nBit rate                                 : 128 Kbps\r\nChannel(s)                               : 2 channels\r\nChannel positions                        : Front: L R\r\nSampling rate                            : 44.1 KHz\r\nCompression mode                         : Lossy\r\nStream size                              : 109 MiB (10%)","torrent":{"xt":"urn:btih:ad64c32a02c0e08f1b95562af6b06b19e1c5a4d2","amp;dn":"The+Divergent+Series+Insurgent%282015%29MPEG-4%5BDaScubaDude%5D","amp;tr":["udp%3A%2F%2Ftracker.leechers-paradise.org%3A6969","udp%3A%2F%2Fzer0day.ch%3A1337","udp%3A%2F%2Fopen.demonii.com%3A1337","udp%3A%2F%2Ftracker.coppersurfer.tk%3A6969","udp%3A%2F%2Fexodus.desync.com%3A6969"],"infoHash":"ad64c32a02c0e08f1b95562af6b06b19e1c5a4d2","infoHashBuffer":{"type":"Buffer","data":[173,100,195,42,2,192,224,143,27,149,86,42,246,176,107,25,225,197,164,210]},"announce":[],"urlList":[]}}